<?xml version="1.0" standalone="no"?>
<!DOCTYPE svg PUBLIC "-//W3C//DTD SVG 20010904//EN"
 "http://www.w3.org/TR/2001/REC-SVG-20010904/DTD/svg10.dtd">
<svg version="1.0" xmlns="http://www.w3.org/2000/svg"
 width="140.000000pt" height="140.000000pt" viewBox="0 0 140.000000 140.000000"
 preserveAspectRatio="xMidYMid meet">
<metadata>
Created by potrace 1.14, written by Peter Selinger 2001-2017
</metadata>
<g transform="translate(0.000000,140.000000) scale(0.100000,-0.100000)"
fill="#000000" stroke="none">
<path d="M575 1261 c-82 -24 -126 -44 -182 -82 -106 -72 -197 -192 -239 -319
-28 -83 -26 -262 3 -355 32 -100 32 -99 84 -76 116 53 251 5 309 -110 11 -21
22 -39 24 -39 6 0 -13 99 -23 118 -31 58 -106 97 -198 105 -23 2 -45 5 -48 8
-2 3 5 30 16 60 12 30 29 97 39 151 21 110 43 159 93 206 90 87 201 71 285
-42 31 -42 28 -56 -10 -56 -18 0 -47 -9 -65 -20 -39 -23 -51 -72 -36 -140 6
-25 23 -97 38 -160 36 -152 31 -213 -24 -325 -22 -44 -37 -82 -34 -85 2 -3 53
-5 111 -5 131 0 225 26 322 90 77 51 103 74 152 135 146 183 165 462 44 667
-70 118 -194 218 -329 265 -85 29 -248 33 -332 9z"/>
<path d="M607 903 c-12 -12 -7 -33 8 -33 17 0 19 9 7 28 -5 7 -11 9 -15 5z"/>
</g>
</svg>
