<svg width="417" height="366" viewBox="0 0 417 366" fill="none" xmlns="http://www.w3.org/2000/svg">
<path d="M316.872 30.9038C357.629 48.3142 399.425 76.8984 412.405 115.097C425.385 153.296 409.29 201.11 383.849 235.671C358.149 269.972 323.103 290.761 290.393 313.888C257.424 337.015 226.791 362.221 193.822 365.599C160.593 368.977 125.028 350.528 90.7607 327.92C56.2339 305.313 23.2647 278.807 8.98669 243.726C-5.2913 208.906 -0.878109 165.51 10.5443 122.893C21.9667 80.2766 40.6579 38.1798 72.5887 17.6511C104.779 -2.8776 150.469 -1.57832 193.303 2.31953C236.137 6.21738 276.115 13.2335 316.872 30.9038Z" fill="url(#paint0_linear_564_8236)"/>
<defs>
<linearGradient id="paint0_linear_564_8236" x1="59" y1="210" x2="345" y2="223.5" gradientUnits="userSpaceOnUse">
<stop stop-color="#519043"/>
<stop offset="1" stop-color="#8CC53F"/>
</linearGradient>
</defs>
</svg>
