<svg width="428" height="421" viewBox="0 0 428 421" fill="none" xmlns="http://www.w3.org/2000/svg">
<path d="M319.956 12.4012C349.855 28.3582 374.227 63.2828 395.835 107.541C417.443 151.799 436.287 205.691 424.227 246.637C412.167 287.282 369.202 315.282 330.006 350.207C290.81 385.131 255.132 426.68 223.473 420.357C191.815 414.336 163.674 360.142 124.73 325.218C85.5336 290.594 35.0311 274.938 13.1718 237.906C-8.43624 200.874 -1.90359 142.465 21.4632 100.917C44.8301 59.6699 84.5285 35.2829 120.458 21.7345C156.137 7.88512 188.046 5.17545 221.463 2.16471C254.88 -0.544962 290.307 -3.5557 319.956 12.4012Z" fill="#7FB440" fill-opacity="0.4"/>
</svg>
