<svg width="66" height="65" viewBox="0 0 66 65" fill="none" xmlns="http://www.w3.org/2000/svg">
<path d="M32.8046 0.23221C25.6011 0.283799 18.6221 2.7369 12.979 7.2008C7.33592 11.6647 3.35335 17.8827 1.66556 24.8645C-0.0222283 31.8463 0.681832 39.1904 3.66561 45.727C6.64939 52.2637 11.7413 57.6171 18.1303 60.9345C24.5194 64.2519 31.8382 65.3427 38.9211 64.033C46.0039 62.7233 52.4436 59.0886 57.2144 53.7076C61.9852 48.3266 64.8128 41.5089 65.2468 34.3403C65.6808 27.1716 63.6964 20.0643 59.6094 14.1503L55.1014 17.2467C58.495 22.1574 60.1428 28.0589 59.7824 34.0114C59.422 39.9639 57.0741 45.625 53.1126 50.0931C49.1512 54.5612 43.804 57.5794 37.9227 58.6669C32.0415 59.7544 25.9643 58.8487 20.6591 56.094C15.3539 53.3394 11.1259 48.8942 8.64829 43.4665C6.17071 38.0387 5.58609 31.9406 6.98755 26.1432C8.38901 20.3459 11.6959 15.1827 16.3817 11.4761C21.0674 7.7695 26.8625 5.73257 32.8439 5.68973L32.8046 0.23221Z" fill="#FAFDF6"/>
</svg>
