<svg width="122" height="40" viewBox="0 0 122 40" fill="none" xmlns="http://www.w3.org/2000/svg">
<g id="logos:google" clip-path="url(#clip0_1038_8150)">
<path id="Vector" d="M118.108 24.4454L121.49 26.6999C120.392 28.3166 117.767 31.0904 113.228 31.0904C107.592 31.0904 103.395 26.7297 103.395 21.1823C103.395 15.2792 107.636 11.2744 112.754 11.2744C117.9 11.2744 120.422 15.368 121.238 17.578L121.683 18.7054L108.423 24.1932C109.431 26.1808 111.004 27.1894 113.228 27.1894C115.453 27.1894 116.995 26.0918 118.108 24.4454ZM107.711 20.8711L116.565 17.1925C116.076 15.9616 114.623 15.0866 112.887 15.0866C110.677 15.0866 107.607 17.0444 107.711 20.8711Z" fill="#FF302F"/>
<path id="Vector_2" d="M97.002 1.17407H101.273V30.186H97.002V1.17383V1.17407Z" fill="#20B15A"/>
<path id="Vector_3" d="M90.2684 12.0457H94.3917V29.6664C94.3917 36.9786 90.0755 39.9895 84.9732 39.9895C80.1677 39.9895 77.2755 36.7562 76.1927 34.131L79.9748 32.5586C80.657 34.1752 82.3034 36.0888 84.9732 36.0888C88.251 36.0888 90.2684 34.0567 90.2684 30.2598V28.836H90.1201C89.141 30.0224 87.2722 31.0902 84.8991 31.0902C79.9451 31.0902 75.4062 26.7741 75.4062 21.2121C75.4062 15.6202 79.9451 11.2598 84.8991 11.2598C87.2574 11.2598 89.141 12.3129 90.1201 13.4698H90.2684V12.046V12.0457ZM90.5648 21.2121C90.5648 17.7117 88.2363 15.1605 85.2698 15.1605C82.2736 15.1605 79.7522 17.7117 79.7522 21.2121C79.7522 24.6679 82.2736 27.1745 85.2698 27.1745C88.2365 27.1895 90.5651 24.6679 90.5651 21.2121H90.5648Z" fill="#3686F7"/>
<path id="Vector_4" d="M51.9563 21.1384C51.9563 26.8489 47.5068 31.0463 42.0485 31.0463C36.5904 31.0463 32.1406 26.8342 32.1406 21.1384C32.1406 15.3984 36.5904 11.2158 42.0485 11.2158C47.5068 11.2158 51.9563 15.3984 51.9563 21.1384ZM47.6254 21.1384C47.6254 17.5789 45.0444 15.1313 42.0485 15.1313C39.0525 15.1313 36.4716 17.5789 36.4716 21.1384C36.4716 24.6684 39.0525 27.1456 42.0485 27.1456C45.0447 27.1456 47.6254 24.6684 47.6254 21.1384Z" fill="#FF302F"/>
<path id="Vector_5" d="M73.597 21.1823C73.597 26.8927 69.1472 31.0901 63.6891 31.0901C58.2308 31.0901 53.7812 26.8925 53.7812 21.1823C53.7812 15.4423 58.2308 11.2744 63.6891 11.2744C69.1472 11.2744 73.597 15.4275 73.597 21.1823ZM69.251 21.1823C69.251 17.6227 66.6703 15.1751 63.6741 15.1751C60.6782 15.1751 58.0972 17.6227 58.0972 21.1823C58.0972 24.7123 60.6782 27.1894 63.6741 27.1894C66.6851 27.1894 69.251 24.6975 69.251 21.1823Z" fill="#FFBA40"/>
<path id="Vector_6" d="M15.8554 26.7449C9.64059 26.7449 4.77583 21.7315 4.77583 15.5168C4.77583 9.30224 9.64059 4.2889 15.8554 4.2889C19.2075 4.2889 21.6546 5.6089 23.4642 7.29986L26.4456 4.31867C23.9242 1.90105 20.5573 0.0615234 15.8554 0.0615234C7.34178 0.0617615 0.177734 7.00343 0.177734 15.5168C0.177734 24.0306 7.34178 30.972 15.8554 30.972C20.4534 30.972 23.9242 29.4591 26.6384 26.641C29.4268 23.8525 30.287 19.9368 30.287 16.7627C30.287 15.7689 30.1684 14.7456 30.0349 13.9891H15.8554V18.1125H25.9561C25.6594 20.6934 24.8437 22.4584 23.6423 23.6596C22.1887 25.1282 19.8899 26.7449 15.8554 26.7449Z" fill="#3686F7"/>
</g>
<defs>
<clipPath id="clip0_1038_8150">
<rect width="121.905" height="40" fill="white"/>
</clipPath>
</defs>
</svg>
