<svg width="242" height="50" viewBox="0 0 242 50" fill="none" xmlns="http://www.w3.org/2000/svg">
<g id="Parewa new logo 1201AM-01 1" clip-path="url(#clip0_564_7375)">
<path id="Vector" d="M83.8328 27.0725C81.5905 28.9343 78.3903 29.8641 74.2323 29.862H66.2539V43.5462H58.3086V5.49023H74.752C78.5437 5.49023 81.5662 6.4716 83.8196 8.43432C86.0729 10.397 87.2007 13.4343 87.2029 17.5462C87.1985 22.0396 86.0751 25.215 83.8328 27.0725ZM77.7249 13.3652C76.7118 12.5187 75.2916 12.0966 73.4642 12.0988H66.2539V23.306H73.4642C75.2916 23.306 76.7118 22.8499 77.7249 21.9376C78.7379 21.0253 79.2444 19.579 79.2444 17.5988C79.2444 15.6185 78.7379 14.2073 77.7249 13.3652Z" fill="#519043"/>
<path id="Vector_2" d="M104.232 26.4272C105.243 26.3372 106.238 26.1161 107.192 25.7693C108.253 25.3307 108.785 24.6333 108.788 23.6772C108.788 22.5259 108.379 21.7298 107.563 21.289C106.746 20.8482 105.548 20.6289 103.967 20.6311C102.202 20.6311 100.946 21.062 100.2 21.9239C99.625 22.6755 99.2617 23.5656 99.1473 24.5028H92.0032C92.1577 22.0423 92.8529 20.0204 94.0888 18.437C96.0553 15.9612 99.4309 14.7221 104.216 14.7199C107.088 14.6665 109.932 15.2946 112.512 16.5522C114.94 17.7759 116.154 20.0785 116.154 23.4601V36.368C116.154 37.2627 116.171 38.3471 116.206 39.6213C116.256 40.5851 116.405 41.2397 116.647 41.5949C116.928 41.9704 117.305 42.2645 117.739 42.4469V43.5325H109.671C109.461 43.0157 109.305 42.4789 109.205 41.9305C109.115 41.4338 109.046 40.8647 108.996 40.2265C107.958 41.3349 106.76 42.2838 105.441 43.0423C103.782 43.9682 101.907 44.4404 100.005 44.4107C97.4269 44.4107 95.2971 43.6838 93.6154 42.2298C91.9336 40.7759 91.0928 38.7145 91.0928 36.0456C91.0928 32.5851 92.4457 30.0807 95.1515 28.5324C96.6346 27.6903 98.8151 27.0873 101.693 26.7232L104.232 26.4272ZM108.761 29.8614C108.307 30.1445 107.826 30.3825 107.324 30.5719C106.678 30.7951 106.013 30.9635 105.338 31.0752L103.65 31.3844C102.072 31.6607 100.937 31.9963 100.246 32.391C99.6887 32.6958 99.2289 33.1507 98.9197 33.7035C98.6105 34.2562 98.4645 34.8845 98.4984 35.516C98.4984 36.7726 98.8527 37.6805 99.5677 38.2397C100.31 38.8096 101.229 39.106 102.167 39.0785C103.766 39.0847 105.327 38.5974 106.636 37.6838C108 36.7561 108.708 35.0609 108.761 32.5982V29.8614Z" fill="#519043"/>
<path id="Vector_3" d="M138.058 15.0132L138.694 15.0493V22.5888C138.227 22.5395 137.81 22.5033 137.446 22.4868C137.082 22.4704 136.784 22.4605 136.565 22.4605C133.586 22.4605 131.584 23.4243 130.56 25.352C129.99 26.4375 129.705 28.1075 129.702 30.3618V43.8125H122.247V15.671H129.315V20.5757C130.456 18.7007 131.449 17.4189 132.295 16.7303C133.683 15.5767 135.485 15 137.701 15C137.846 15 137.962 15.0033 138.058 15.0132Z" fill="#519043"/>
<path id="Vector_4" d="M161.776 15.9741C163.772 16.8715 165.47 18.3162 166.669 20.1386C167.855 21.8823 168.627 23.8709 168.926 25.9544C169.152 27.8094 169.233 29.6791 169.168 31.5465H148.54C148.655 34.3689 149.643 36.3426 151.503 37.4676C152.736 38.206 154.156 38.577 155.595 38.5366C157.283 38.5366 158.654 38.1068 159.707 37.2472C160.341 36.7097 160.86 36.0508 161.233 35.3097H168.791C168.592 36.9807 167.677 38.6759 166.046 40.3952C163.51 43.132 159.959 44.5005 155.393 44.5005C151.761 44.5477 148.228 43.3225 145.415 41.0399C142.535 38.7307 141.095 34.9752 141.095 29.7735C141.095 24.8985 142.395 21.1605 144.995 18.5597C147.594 15.9588 150.97 14.6572 155.121 14.6551C157.408 14.6216 159.677 15.0713 161.776 15.9741ZM150.695 22.3327C149.649 23.4029 148.987 24.8546 148.709 26.688H161.468C161.331 24.734 160.669 23.2515 159.481 22.2406C158.263 21.219 156.708 20.6791 155.115 20.7241C153.215 20.7241 151.741 21.2603 150.695 22.3327Z" fill="#519043"/>
<path id="Vector_5" d="M186.27 15.4043H193.778L198.082 35.6707L202.498 15.4043H210.219L202.008 43.5457H194.394L189.958 23.0457L185.462 43.5457H177.775L169.83 15.4043H177.775L182.192 35.5951L186.27 15.4043Z" fill="#519043"/>
<path id="Vector_6" d="M225.523 26.4274C226.533 26.3376 227.527 26.1165 228.48 25.7695C229.546 25.3288 230.082 24.638 230.082 23.684C230.082 22.5327 229.674 21.7366 228.857 21.2958C228.04 20.8551 226.842 20.6358 225.262 20.638C223.496 20.638 222.241 21.0689 221.498 21.9307C220.923 22.6823 220.559 23.5724 220.445 24.5097H213.291C213.448 22.0491 214.144 20.0272 215.38 18.4439C217.346 15.968 220.721 14.729 225.503 14.7268C228.377 14.6734 231.222 15.3015 233.803 16.559C236.22 17.7827 237.433 20.0853 237.445 23.4669V36.3748C237.445 37.2695 237.461 38.354 237.494 39.6281C237.547 40.5919 237.693 41.2465 237.938 41.6018C238.218 41.9768 238.594 42.2709 239.027 42.4537V43.5393H230.959C230.749 43.0225 230.593 42.4857 230.492 41.9373C230.406 41.4406 230.337 40.8715 230.284 40.2333C229.247 41.3424 228.05 42.2914 226.732 43.0491C225.073 43.9745 223.198 44.4467 221.296 44.4176C218.716 44.4176 216.585 43.6906 214.903 42.2366C213.221 40.7827 212.382 38.7213 212.384 36.0524C212.384 32.5919 213.736 30.0875 216.439 28.5393C217.922 27.6972 220.104 27.0941 222.984 26.7301L225.523 26.4274ZM230.049 29.8617C229.596 30.1447 229.115 30.3827 228.615 30.5722C227.969 30.7955 227.304 30.9639 226.629 31.0754L224.944 31.3847C223.366 31.661 222.232 31.9965 221.541 32.3912C220.983 32.6959 220.522 33.1507 220.213 33.7034C219.903 34.2561 219.756 34.8844 219.789 35.5162C219.789 36.7728 220.146 37.6807 220.859 38.2399C221.602 38.8101 222.522 39.1065 223.461 39.0787C225.061 39.085 226.624 38.5977 227.933 37.684C229.297 36.7564 230.005 35.0612 230.055 32.5985L230.049 29.8617Z" fill="#519043"/>
<path id="Vector_7" d="M19.0352 42.2307V40.6748C19.0683 41.1929 19.0683 41.7126 19.0352 42.2307Z" fill="url(#paint0_linear_564_7375)"/>
<path id="Vector_8" d="M20.8168 22.9443V23.8193C20.8019 23.5279 20.8019 23.2358 20.8168 22.9443Z" fill="url(#paint1_linear_564_7375)"/>
<path id="Vector_9" d="M50.4262 25.0004C50.4245 26.4003 50.3061 27.7976 50.072 29.178C49.9727 29.7603 49.8535 30.3392 49.7145 30.9083C49.6052 31.3491 49.4893 31.7866 49.3569 32.2241C49.2477 32.5859 49.1285 32.9478 48.9994 33.303C48.8703 33.6583 48.7676 33.9346 48.6452 34.2438C48.5227 34.553 48.4101 34.8129 48.2876 35.0892C48.1651 35.3655 48.0559 35.6122 47.9301 35.8688C47.8043 36.1254 47.695 36.3327 47.5725 36.5629C47.4501 36.7932 47.3375 37.0004 47.2183 37.2208C47.0991 37.4412 46.9833 37.6353 46.8608 37.8359C46.7383 38.0366 46.6224 38.2142 46.5032 38.4017C46.3841 38.5892 46.2682 38.7734 46.1457 38.9576C46.0232 39.1419 45.9107 39.2866 45.7915 39.4576C45.6723 39.6287 45.5564 39.7866 45.4339 39.9544C45.3114 40.1221 45.1956 40.257 45.0764 40.4083C44.9572 40.5596 44.8414 40.7109 44.7189 40.859C44.5964 41.007 44.4805 41.132 44.3613 41.2702C44.2421 41.4083 44.1263 41.5465 44.0071 41.6813L43.6496 42.0629C43.5304 42.1879 43.4145 42.3129 43.292 42.4346C43.1695 42.5563 43.057 42.678 42.9345 42.7965C42.812 42.9149 42.6994 43.0201 42.5803 43.1254C42.4611 43.2307 42.3452 43.3557 42.2227 43.4543C42.1002 43.553 41.9844 43.6616 41.8652 43.7636C41.746 43.8655 41.6301 43.9708 41.5076 44.0728C41.3852 44.1747 41.2726 44.2734 41.1534 44.3688L40.7959 44.6484C40.6767 44.7405 40.5608 44.8359 40.4383 44.928L40.0808 45.1879C39.9649 45.2734 39.8458 45.3557 39.7266 45.4379L39.369 45.6912L39.0115 45.9215L38.654 46.1484L38.2997 46.3721C38.1806 46.4445 38.0614 46.5103 37.9422 46.5761L37.5847 46.78C37.4655 46.8491 37.3496 46.9182 37.2271 46.984C37.1046 47.0498 36.9888 47.1024 36.8729 47.1649L36.5154 47.3458L36.1578 47.5267C36.042 47.5826 35.9195 47.632 35.8003 47.6879L35.4427 47.8458C35.3236 47.8984 35.2077 47.9576 35.0885 48.007L34.731 48.1484L34.3734 48.2866L34.0159 48.428L33.6617 48.553L33.3041 48.6715L32.9466 48.7932L32.5891 48.9017L32.2348 49.0037L31.8773 49.1057L31.5198 49.2044C31.4039 49.234 31.2814 49.257 31.1622 49.2833L30.808 49.3655C30.6888 49.3919 30.5696 49.4248 30.4505 49.4478L30.0929 49.5169L29.7354 49.5793L29.3812 49.6451L29.0236 49.7043L28.6661 49.7471L28.3086 49.7932L27.9543 49.8392L27.5968 49.8688L27.2392 49.8984L26.8817 49.9248C26.7625 49.9248 26.6467 49.9445 26.5242 49.9478C26.4017 49.9511 26.2891 49.9478 26.1699 49.9478H25.8124H25.4549H25.2761H24.7431H24.3856H24.028L23.6705 49.9248L23.3163 49.8984L22.9587 49.8688L22.6012 49.8326L22.2437 49.7899L21.8894 49.7438L21.5319 49.6912L21.1744 49.6353L20.8168 49.5728L20.4626 49.507L20.105 49.4346L19.8799 49.3886L20.105 49.0399C20.2242 48.8557 20.3434 48.6715 20.4626 48.4807C20.5818 48.2899 20.7009 48.0925 20.8168 47.8951C20.9327 47.6978 21.0585 47.4807 21.1744 47.2701C21.2902 47.0596 21.416 46.8326 21.5319 46.6123C21.6478 46.3919 21.7736 46.1451 21.8894 45.9116C22.0053 45.678 22.1311 45.4083 22.2437 45.155C22.3562 44.9017 22.4853 44.6122 22.6012 44.3392C22.7171 44.0662 22.8429 43.7504 22.9587 43.4215C23.0051 43.2932 23.058 43.1682 23.1044 43.0399C23.1838 42.8162 23.2501 42.5892 23.3163 42.359C23.4925 41.7127 23.611 41.0522 23.6705 40.3853C23.7632 39.3687 23.7632 38.3459 23.6705 37.3293C23.5977 36.4445 23.4719 35.553 23.3163 34.6715C23.207 34.0761 23.0878 33.484 22.9587 32.9017C22.8429 32.3853 22.7237 31.8754 22.6012 31.3787C22.4787 30.882 22.3628 30.3919 22.2437 29.9445L22.1245 29.4708C22.0516 29.178 21.9722 28.8853 21.8894 28.5892C21.7736 28.1813 21.6511 27.7701 21.5319 27.359C21.4127 26.9478 21.2836 26.4774 21.1744 26.0432C20.9884 25.3096 20.8688 24.561 20.8168 23.8063V22.9313C20.8168 22.7471 20.8334 22.5629 20.8665 22.3787C20.9199 21.9932 21.0234 21.6161 21.1744 21.257C21.272 21.0268 21.3917 20.8065 21.5319 20.5991C21.6386 20.4374 21.7581 20.2845 21.8894 20.1419C22 20.0194 22.1183 19.904 22.2437 19.7965C22.3595 19.7011 22.4787 19.609 22.6012 19.5267C22.7165 19.4503 22.8359 19.38 22.9587 19.3162C23.0747 19.2537 23.194 19.1977 23.3163 19.1484C23.4321 19.0991 23.5513 19.0563 23.6705 19.0169C23.7897 18.9774 23.9055 18.9478 24.028 18.9215C24.1505 18.8951 24.2631 18.8721 24.3856 18.8557H24.4683L24.7431 18.8261C24.8623 18.8261 24.9815 18.8063 25.0973 18.803C25.2164 18.7965 25.3358 18.7965 25.4549 18.803C25.574 18.803 25.6932 18.803 25.8124 18.8261C25.9316 18.8491 26.0508 18.859 26.1699 18.882C26.2893 18.9024 26.4075 18.9287 26.5242 18.9609C26.6433 18.9938 26.7625 19.0267 26.8817 19.0695H26.9016C26.9016 19.0695 26.9016 19.0399 26.8817 18.9971C26.8254 18.78 26.6765 18.1484 26.6467 18.0794C26.6169 18.0103 26.5672 17.8886 26.5242 17.7932C26.4181 17.5549 26.2998 17.3221 26.1699 17.0958C26.1137 17.0037 26.0607 16.9083 26.0011 16.8195C25.9415 16.7307 25.8753 16.6287 25.8124 16.5333C25.6965 16.3623 25.5807 16.2044 25.4549 16.0333C25.3291 15.8622 25.2231 15.7274 25.0973 15.5826C24.9715 15.4379 24.8656 15.3063 24.7431 15.1715C24.6206 15.0366 24.5081 14.9248 24.3856 14.803L24.3061 14.7241C24.2167 14.6353 24.1207 14.553 24.028 14.4708C23.9353 14.3886 23.793 14.2636 23.6705 14.1682C23.548 14.0728 23.4388 13.9774 23.3163 13.8886C23.1938 13.7998 23.0779 13.7307 22.9587 13.6517C22.8396 13.5728 22.7237 13.5037 22.6012 13.4346C22.4787 13.3655 22.3661 13.2998 22.2437 13.2405C22.1212 13.1813 22.0086 13.1287 21.8894 13.0761C21.7702 13.0234 21.6511 12.9708 21.5319 12.9248C21.4127 12.8787 21.2935 12.8425 21.1744 12.803L20.8168 12.6978L20.4626 12.6122C20.3434 12.5903 20.2242 12.5706 20.105 12.553C19.9859 12.5333 19.8667 12.5136 19.7475 12.5037H19.6979C19.5952 12.5037 19.4926 12.5037 19.39 12.484H19.0357C18.9122 12.484 18.793 12.484 18.6782 12.484L18.3207 12.5136L17.9631 12.5596L17.6056 12.6287C17.4864 12.655 17.3672 12.6813 17.2514 12.7142L16.8839 12.8294C16.7647 12.8688 16.6455 12.9116 16.5264 12.9577L16.1688 13.109C16.0496 13.1649 15.9305 13.2208 15.8146 13.2833C15.6987 13.3458 15.5729 13.4116 15.4571 13.4807C15.3412 13.5498 15.2187 13.6287 15.0995 13.7044L14.742 13.9544C14.6228 14.0465 14.5036 14.1386 14.3878 14.234C14.2719 14.3294 14.1461 14.4346 14.0302 14.5432C13.9143 14.6517 13.7885 14.7701 13.6727 14.8886C13.5568 15.007 13.431 15.1386 13.3151 15.2702C13.1993 15.4017 13.0735 15.5465 12.9609 15.6912C12.8484 15.8359 12.7192 16.0037 12.6034 16.1649C12.4875 16.3261 12.3617 16.4938 12.2458 16.6879C12.13 16.882 12.0042 17.0826 11.8883 17.2866C11.7724 17.4905 11.6433 17.7405 11.5341 17.9708C11.4248 18.2011 11.2858 18.5037 11.1765 18.7734C11.0408 19.1024 10.9249 19.4313 10.819 19.78L10.7892 19.8688C10.6601 20.2997 10.5575 20.7372 10.4581 21.1846C10.3191 21.8425 10.2066 22.5004 10.1039 23.1386C10.0774 23.3063 10.0476 23.4675 10.0245 23.6386C9.94502 24.1419 9.84901 24.6254 9.74639 25.1386C9.64376 25.6517 9.51796 26.1517 9.38885 26.6517C9.27629 27.0827 9.16042 27.5103 9.03131 27.9379C8.91875 28.3173 8.79957 28.6956 8.67377 29.0728L8.63405 29.2044C8.53142 29.507 8.42879 29.8096 8.30299 30.1122C8.17719 30.4149 8.07126 30.734 7.94546 31.0399C7.91566 31.109 7.89249 31.1813 7.86269 31.2504C7.8329 31.3195 7.71703 31.6649 7.58792 31.9379C7.51401 32.1333 7.39091 32.3066 7.23038 32.4412C7.19744 32.4648 7.15837 32.4785 7.11782 32.4807H7.23038H7.58792H8.30299H8.65722H9.01476C9.13725 32.4807 9.25312 32.4807 9.3723 32.5004L9.72983 32.5234L10.0874 32.5563L10.4416 32.5925L10.7991 32.6386L11.1567 32.6945L11.5142 32.7537L11.8684 32.8228L12.2491 32.8951L12.6067 32.9873L12.9642 33.0892L13.3185 33.2011L13.676 33.3294C13.7985 33.3754 13.9177 33.4215 14.0335 33.4708L14.3911 33.6287C14.5102 33.6879 14.6294 33.7438 14.7453 33.8063C14.8612 33.8688 14.987 33.9346 15.1028 34.0004L15.4604 34.2175C15.5829 34.2965 15.702 34.3787 15.8179 34.4609C15.9338 34.5432 16.0596 34.6418 16.1721 34.7372C16.2847 34.8326 16.4171 34.9412 16.5297 35.0465C16.6422 35.1517 16.7746 35.2767 16.8872 35.3984C16.9998 35.5201 17.1322 35.6682 17.2447 35.8063C17.3573 35.9445 17.4897 36.1353 17.599 36.2833C17.7082 36.4313 17.8473 36.6649 17.9565 36.859C18.0883 37.0938 18.2076 37.3354 18.3141 37.5826C18.4536 37.904 18.573 38.2335 18.6716 38.5695C18.8628 39.2539 18.9827 39.9561 19.0291 40.6649V42.2208C18.9958 42.7828 18.9195 43.3414 18.8007 43.8919C18.8803 43.3409 18.8362 42.7792 18.6716 42.2471C18.5747 41.8924 18.4553 41.5441 18.3141 41.2044C18.2037 40.9412 18.0845 40.6813 17.9565 40.4248C17.844 40.1978 17.7248 39.9741 17.599 39.7669C17.4732 39.5596 17.3639 39.3688 17.2447 39.1813C17.1256 38.9938 17.0031 38.8162 16.8872 38.655C16.7713 38.4938 16.6455 38.3261 16.5297 38.1912L16.4668 38.1155C16.3741 38.007 16.2715 37.9083 16.1721 37.803C16.0728 37.6978 15.9404 37.5563 15.8179 37.4445C15.6954 37.3326 15.5795 37.234 15.4604 37.1155C15.3412 36.9971 15.2253 36.9247 15.1028 36.8326C14.9803 36.7405 14.8678 36.6583 14.7453 36.5761L14.3911 36.3524C14.2719 36.28 14.156 36.2076 14.0335 36.1419C13.911 36.0761 13.7952 36.0201 13.676 35.9609C13.5568 35.9017 13.4409 35.8425 13.3185 35.7866C13.196 35.7307 13.0834 35.6879 12.9642 35.6386L12.6133 35.5267L12.2558 35.4083C12.1366 35.3688 12.0174 35.3326 11.8982 35.2998L11.544 35.2044L11.1865 35.1221C11.0905 35.1024 10.9978 35.0761 10.9018 35.0596H10.8289L10.4714 35.0004C10.3522 35.0004 10.233 34.9609 10.1172 34.9478C10.0013 34.9346 9.8755 34.9215 9.75963 34.9116C9.64376 34.9017 9.51796 34.8853 9.40209 34.8787H9.04456H8.68702H8.33279L7.97525 34.905C7.85607 34.905 7.73358 34.9247 7.61771 34.9412L7.26017 35.0004C7.14099 35.0202 7.02182 35.0432 6.90595 35.0695L6.54841 35.1517L6.19087 35.257L5.96907 35.3228L5.83333 35.3721L5.47911 35.5037L5.12157 35.6451L4.76403 35.803C4.64485 35.8557 4.52567 35.9083 4.40649 35.9675L4.05227 36.1419L3.69473 36.3228L3.33719 36.5136L3.04256 36.6715C3.02269 36.632 3.00283 36.5892 2.97966 36.5497C2.85717 36.3162 2.73798 36.0826 2.62543 35.8458C2.51287 35.609 2.38376 35.3359 2.26789 35.0761C2.15202 34.8162 2.02291 34.5169 1.91035 34.234C1.7978 33.9511 1.66537 33.6122 1.55282 33.2965C1.44026 32.9807 1.30783 32.5728 1.19859 32.2076C1.06616 31.7767 0.946985 31.3458 0.841048 30.8918C0.702006 30.3261 0.582831 29.7526 0.483515 29.1715C0.247189 27.7935 0.12759 26.3982 0.125977 25.0004C0.127391 23.6004 0.24699 22.2029 0.483515 20.8228C0.582831 20.2416 0.702006 19.666 0.841048 19.0958C0.946985 18.6572 1.06616 18.2186 1.19859 17.78C1.30783 17.4149 1.42702 17.0563 1.55282 16.6978C1.67862 16.3392 1.78455 16.0695 1.91035 15.757C2.03615 15.4445 2.14209 15.1912 2.26789 14.9116C2.39369 14.632 2.49963 14.3886 2.62543 14.132C2.75123 13.8754 2.86048 13.6682 2.97966 13.4412C3.09883 13.2142 3.2147 13.0004 3.33719 12.7833C3.45968 12.5662 3.57224 12.3721 3.69473 12.1682C3.81722 11.9642 3.92978 11.7899 4.05227 11.6024C4.17476 11.4149 4.284 11.2307 4.40649 11.0497C4.52898 10.8688 4.64485 10.7208 4.76403 10.5498C4.88321 10.3787 4.99908 10.2208 5.12157 10.0497C5.24406 9.87869 5.35993 9.75041 5.47911 9.59909C5.59829 9.44777 5.71415 9.29646 5.83333 9.14843C5.95251 9.00041 6.07169 8.87212 6.19087 8.73396C6.31005 8.5958 6.42592 8.46093 6.54841 8.32607C6.6709 8.1912 6.78677 8.06949 6.90595 7.9412C7.02513 7.81291 7.14099 7.6912 7.26017 7.56949L7.61771 7.21094L7.97525 6.88199C8.09443 6.77015 8.2103 6.65502 8.33279 6.55304C8.45528 6.45107 8.57115 6.34581 8.68702 6.24383L9.04456 5.9379L9.40209 5.63857C9.51796 5.54318 9.64045 5.45435 9.75963 5.36225C9.87881 5.27014 9.99468 5.17147 10.1172 5.08265C10.2397 4.99383 10.3522 4.9083 10.4714 4.82278L10.8289 4.56949C10.9481 4.48726 11.064 4.39843 11.1865 4.3162C11.309 4.23396 11.4248 4.16488 11.544 4.08922C11.6632 4.01356 11.7791 3.93462 11.8982 3.86225L12.2491 3.61883L12.6067 3.41488C12.7259 3.34581 12.8417 3.27673 12.9642 3.21094C13.0867 3.14515 13.1993 3.07278 13.3185 3.01028L13.676 2.82936L14.0335 2.64515C14.1527 2.58594 14.2686 2.52344 14.3911 2.46751L14.7453 2.30633L15.1028 2.14514L15.4604 1.98396C15.5762 1.93462 15.6987 1.89185 15.8179 1.8458L16.1721 1.70435L16.5297 1.5662C16.6488 1.52015 16.768 1.48067 16.8872 1.4412L17.2447 1.31949C17.3639 1.28002 17.4798 1.23725 17.599 1.20106L17.9565 1.08922L18.3141 0.987251L18.6716 0.888571C18.7908 0.855676 18.9066 0.819486 19.0291 0.78988L19.3834 0.707644L19.7409 0.625407L20.0984 0.54317L20.456 0.474094L20.8102 0.411593L21.1876 0.329356L21.5451 0.270148L21.9027 0.224091L22.2569 0.181326L22.6144 0.135278L22.972 0.102382L23.3295 0.0760703L23.6837 0.0497489L24.0413 0.0234375H24.3988H24.7563C24.8755 0.0234375 24.9914 0.0234375 25.1106 0.0234375H25.4681H25.8256H26.1832C26.3024 0.0234375 26.4215 0.0234375 26.5374 0.0234375L26.895 0.0497489L27.2525 0.0760703L27.61 0.102382L27.9676 0.135278L28.3218 0.181326L28.6793 0.224091L29.0369 0.270148L29.3944 0.329356L29.7486 0.391857L30.1062 0.454358L30.4637 0.523434L30.8212 0.605671L31.1755 0.687908L31.533 0.770144L31.8905 0.868835L32.2481 0.967515L32.6023 1.06949L32.9598 1.18133C33.079 1.21751 33.1982 1.26028 33.3174 1.29975L33.6749 1.42146C33.7941 1.46094 33.9133 1.50041 34.0292 1.54647C34.145 1.59252 34.2675 1.63857 34.3867 1.68462L34.7442 1.82606C34.8634 1.87212 34.9826 1.91489 35.1018 1.96752C35.2209 2.02015 35.3368 2.07277 35.456 2.12541L35.8135 2.2866C35.9327 2.33923 36.0552 2.39186 36.1711 2.44778L36.5286 2.62541L36.8861 2.80962C37.002 2.86883 37.1245 2.92804 37.2404 2.99054L37.5979 3.1912L37.9554 3.39515L38.313 3.59909C38.4322 3.67146 38.548 3.75041 38.6672 3.82607C38.7864 3.90173 38.9056 3.9741 39.0247 4.05304L39.3823 4.28002L39.7398 4.5333L40.094 4.78659C40.2132 4.87212 40.3357 4.95764 40.4516 5.04646C40.5675 5.13528 40.6899 5.23067 40.8091 5.32607L41.1667 5.60238C41.2858 5.70107 41.405 5.79975 41.5209 5.90173C41.6368 6.0037 41.7592 6.10567 41.8784 6.20764C41.9976 6.30962 42.1201 6.41159 42.236 6.51686C42.3518 6.62212 42.4743 6.74383 42.5935 6.8458C42.7127 6.94778 42.8319 7.06949 42.9477 7.17475C43.0636 7.28001 43.1861 7.41159 43.3053 7.5333C43.4244 7.65501 43.5436 7.78001 43.6628 7.90501L44.0203 8.28989L44.3746 8.69778C44.4938 8.83594 44.6162 8.97081 44.7321 9.11226C44.848 9.2537 44.9705 9.4116 45.0896 9.56291C45.2088 9.71423 45.3313 9.86225 45.4472 10.0136C45.563 10.1649 45.6855 10.3425 45.8047 10.5136C45.9239 10.6846 46.0431 10.8425 46.1589 11.0136C46.2748 11.1846 46.3973 11.382 46.5165 11.5662C46.6357 11.7504 46.7582 11.9412 46.874 12.132C46.9899 12.3228 47.1124 12.5432 47.2316 12.7471C47.3507 12.9511 47.4699 13.1846 47.5858 13.405C47.7017 13.6254 47.8308 13.8623 47.9433 14.0958C48.0559 14.3294 48.185 14.6155 48.3009 14.8754C48.4167 15.1353 48.5425 15.4379 48.6584 15.7208C48.7743 16.0037 48.9001 16.3458 49.0126 16.6616C49.1252 16.9774 49.2609 17.3787 49.3702 17.7438C49.5026 18.1748 49.6185 18.6123 49.7277 19.0596C49.8667 19.6298 49.9859 20.2066 50.0852 20.7899C50.3167 22.1815 50.4308 23.5899 50.4262 25.0004Z" fill="url(#paint2_linear_564_7375)"/>
<path id="Vector_10" d="M22.1241 29.4899C21.5447 27.1873 20.5416 24.8123 20.8661 22.3912C20.9682 21.4805 21.3814 20.632 22.0368 19.9873C22.6923 19.3426 23.5503 18.9406 24.4679 18.8485C25.2848 18.7194 26.1212 18.7952 26.9012 19.0689C26.9012 19.0689 26.6794 18.1643 26.6463 18.082C26.4665 17.642 26.2448 17.2202 25.9842 16.8222C25.5067 16.058 24.9375 15.3544 24.2892 14.7268C23.0624 13.4811 21.4405 12.6944 19.6975 12.4998C15.2051 12.105 11.9839 15.934 10.7987 19.8583C10.459 21.0929 10.2046 22.3491 10.0373 23.6182C9.72853 25.5083 9.26348 27.3698 8.64689 29.184C8.41846 29.8715 8.17348 30.559 7.89209 31.23C7.79608 31.4669 7.49482 32.4472 7.14722 32.4603C21.9221 31.9406 18.7804 44.0162 18.7804 44.0195C19.2108 42.3748 17.5489 39.3879 16.4631 38.1314C15.0144 36.5051 13.0474 35.4227 10.8914 35.0656C9.2556 34.7009 7.55086 34.7839 5.95874 35.3057C4.94459 35.6674 3.96515 36.1187 3.03223 36.6544C4.74086 39.8636 7.13194 42.6649 10.0395 44.8638C12.947 47.0627 16.3014 48.6065 19.8696 49.388C21.1994 47.4152 22.2822 45.2888 23.0941 43.0557C24.5937 38.9176 23.1537 33.582 22.1241 29.4899ZM19.8067 16.5524C19.806 16.3934 19.8529 16.2378 19.9415 16.1053C20.03 15.9728 20.1561 15.8694 20.3038 15.8082C20.4516 15.7471 20.6142 15.7309 20.7712 15.7618C20.9282 15.7926 21.0725 15.8691 21.1856 15.9816C21.2988 16.094 21.3758 16.2374 21.4069 16.3934C21.4379 16.5494 21.4217 16.711 21.3601 16.8578C21.2986 17.0046 21.1945 17.1299 21.0612 17.2179C20.9278 17.3058 20.7712 17.3524 20.6112 17.3518C20.505 17.3526 20.3996 17.3326 20.3013 17.2928C20.2029 17.253 20.1134 17.1943 20.038 17.12C19.9626 17.0457 19.9028 16.9573 19.8619 16.8598C19.8211 16.7624 19.8001 16.6579 19.8001 16.5524H19.8067Z" fill="white"/>
<path id="Vector_11" d="M21.4124 16.553C21.4131 16.3941 21.3662 16.2386 21.2779 16.1062C21.1895 15.9738 21.0636 15.8704 20.9161 15.8091C20.7685 15.7479 20.606 15.7315 20.4491 15.7621C20.2922 15.7927 20.1479 15.8689 20.0346 15.981C19.9213 16.0931 19.8441 16.2361 19.8126 16.3919C19.7812 16.5477 19.797 16.7092 19.858 16.8561C19.9191 17.0029 20.0226 17.1285 20.1555 17.2168C20.2884 17.3052 20.4447 17.3523 20.6046 17.3523C20.8183 17.3523 21.0233 17.2682 21.1746 17.1184C21.326 16.9686 21.4115 16.7653 21.4124 16.553Z" fill="white"/>
<g id="Clip path group">
<mask id="mask0_564_7375" style="mask-type:luminance" maskUnits="userSpaceOnUse" x="19" y="15" width="3" height="3">
<g id="clip-path">
<path id="Vector_12" d="M21.4124 16.553C21.4131 16.3941 21.3662 16.2386 21.2779 16.1062C21.1895 15.9738 21.0636 15.8704 20.9161 15.8091C20.7685 15.7479 20.606 15.7315 20.4491 15.7621C20.2922 15.7927 20.1479 15.8689 20.0346 15.981C19.9213 16.0931 19.8441 16.2361 19.8126 16.3919C19.7812 16.5477 19.797 16.7092 19.858 16.8561C19.9191 17.0029 20.0226 17.1285 20.1555 17.2168C20.2884 17.3052 20.4447 17.3523 20.6046 17.3523C20.8183 17.3523 21.0233 17.2682 21.1746 17.1184C21.326 16.9686 21.4115 16.7653 21.4124 16.553Z" fill="white"/>
</g>
</mask>
<g mask="url(#mask0_564_7375)">
<g id="Group">
<path id="Vector_13" d="M19.8097 15.75H19.7998V17.352H19.8097V15.75Z" fill="#006838"/>
<path id="Vector_14" d="M19.8195 15.75H19.8096V17.352H19.8195V15.75Z" fill="#016938"/>
<path id="Vector_15" d="M19.8332 15.75H19.8232V17.352H19.8332V15.75Z" fill="#026938"/>
<path id="Vector_16" d="M19.8429 15.75H19.833V17.352H19.8429V15.75Z" fill="#036A38"/>
<path id="Vector_17" d="M19.8527 15.75H19.8428V17.352H19.8527V15.75Z" fill="#046B38"/>
<path id="Vector_18" d="M19.8664 15.75H19.8564V17.352H19.8664V15.75Z" fill="#056B38"/>
<path id="Vector_19" d="M19.8761 15.75H19.8662V17.352H19.8761V15.75Z" fill="#066C38"/>
<path id="Vector_20" d="M19.8888 15.75H19.8789V17.352H19.8888V15.75Z" fill="#076D38"/>
<path id="Vector_21" d="M19.8986 15.75H19.8887V17.352H19.8986V15.75Z" fill="#086D38"/>
<path id="Vector_22" d="M19.9123 15.75H19.9023V17.352H19.9123V15.75Z" fill="#096E38"/>
<path id="Vector_23" d="M19.922 15.75H19.9121V17.352H19.922V15.75Z" fill="#0A6F39"/>
<path id="Vector_24" d="M19.9357 15.75H19.9258V17.352H19.9357V15.75Z" fill="#0B6F39"/>
<path id="Vector_25" d="M19.9455 15.75H19.9355V17.352H19.9455V15.75Z" fill="#0C7039"/>
<path id="Vector_26" d="M19.9582 15.75H19.9482V17.352H19.9582V15.75Z" fill="#0D7139"/>
<path id="Vector_27" d="M19.9689 15.75H19.959V17.352H19.9689V15.75Z" fill="#0E7139"/>
<path id="Vector_28" d="M19.9787 15.75H19.9688V17.352H19.9787V15.75Z" fill="#0F7239"/>
<path id="Vector_29" d="M19.9914 15.75H19.9814V17.352H19.9914V15.75Z" fill="#107339"/>
<path id="Vector_30" d="M20.0021 15.75H19.9922V17.352H20.0021V15.75Z" fill="#117339"/>
<path id="Vector_31" d="M20.0148 15.75H20.0049V17.352H20.0148V15.75Z" fill="#127439"/>
<path id="Vector_32" d="M20.0246 15.75H20.0146V17.352H20.0246V15.75Z" fill="#137539"/>
<path id="Vector_33" d="M20.0383 15.75H20.0283V17.352H20.0383V15.75Z" fill="#147539"/>
<path id="Vector_34" d="M20.048 15.75H20.0381V17.352H20.048V15.75Z" fill="#157639"/>
<path id="Vector_35" d="M20.0617 15.75H20.0518V17.352H20.0617V15.75Z" fill="#167739"/>
<path id="Vector_36" d="M20.0715 15.75H20.0615V17.352H20.0715V15.75Z" fill="#177739"/>
<path id="Vector_37" d="M20.0841 15.75H20.0742V17.352H20.0841V15.75Z" fill="#187839"/>
<path id="Vector_38" d="M20.0939 15.75H20.084V17.352H20.0939V15.75Z" fill="#197939"/>
<path id="Vector_39" d="M20.1047 15.75H20.0947V17.352H20.1047V15.75Z" fill="#1A7939"/>
<path id="Vector_40" d="M20.1174 15.75H20.1074V17.352H20.1174V15.75Z" fill="#1B7A39"/>
<path id="Vector_41" d="M20.1271 15.75H20.1172V17.352H20.1271V15.75Z" fill="#1C7B39"/>
<path id="Vector_42" d="M20.1408 15.75H20.1309V17.352H20.1408V15.75Z" fill="#1D7B39"/>
<path id="Vector_43" d="M20.1506 15.75H20.1406V17.352H20.1506V15.75Z" fill="#1E7C3A"/>
<path id="Vector_44" d="M20.1642 15.75H20.1543V17.352H20.1642V15.75Z" fill="#1F7D3A"/>
<path id="Vector_45" d="M20.174 15.75H20.1641V17.352H20.174V15.75Z" fill="#207D3A"/>
<path id="Vector_46" d="M20.1867 15.75H20.1768V17.352H20.1867V15.75Z" fill="#217E3A"/>
<path id="Vector_47" d="M20.1974 15.75H20.1875V17.352H20.1974V15.75Z" fill="#227F3A"/>
<path id="Vector_48" d="M20.2101 15.75H20.2002V17.352H20.2101V15.75Z" fill="#23803A"/>
<path id="Vector_49" d="M20.2199 15.75H20.21V17.352H20.2199V15.75Z" fill="#24803A"/>
<path id="Vector_50" d="M20.2297 15.75H20.2197V17.352H20.2297V15.75Z" fill="#25813A"/>
<path id="Vector_51" d="M20.2433 15.75H20.2334V17.352H20.2433V15.75Z" fill="#26823A"/>
<path id="Vector_52" d="M20.2531 15.75H20.2432V17.352H20.2531V15.75Z" fill="#27823A"/>
<path id="Vector_53" d="M20.2668 15.75H20.2568V17.352H20.2668V15.75Z" fill="#28833A"/>
<path id="Vector_54" d="M20.2765 15.75H20.2666V17.352H20.2765V15.75Z" fill="#29843A"/>
<path id="Vector_55" d="M20.2892 15.75H20.2793V17.352H20.2892V15.75Z" fill="#2A843A"/>
<path id="Vector_56" d="M20.3 15.75H20.29V17.352H20.3V15.75Z" fill="#2B853A"/>
<path id="Vector_57" d="M20.3127 15.75H20.3027V17.352H20.3127V15.75Z" fill="#2C863A"/>
<path id="Vector_58" d="M20.3224 15.75H20.3125V17.352H20.3224V15.75Z" fill="#2D863A"/>
<path id="Vector_59" d="M20.3361 15.75H20.3262V17.352H20.3361V15.75Z" fill="#2E873A"/>
<path id="Vector_60" d="M20.3459 15.75H20.3359V17.352H20.3459V15.75Z" fill="#2F883A"/>
<path id="Vector_61" d="M20.3556 15.75H20.3457V17.352H20.3556V15.75Z" fill="#30883A"/>
<path id="Vector_62" d="M20.3693 15.75H20.3594V17.352H20.3693V15.75Z" fill="#31893A"/>
<path id="Vector_63" d="M20.3791 15.75H20.3691V17.352H20.3791V15.75Z" fill="#328A3B"/>
<path id="Vector_64" d="M20.3927 15.75H20.3828V17.352H20.3927V15.75Z" fill="#338A3B"/>
<path id="Vector_65" d="M20.4025 15.75H20.3926V17.352H20.4025V15.75Z" fill="#348B3B"/>
<path id="Vector_66" d="M20.4152 15.75H20.4053V17.352H20.4152V15.75Z" fill="#358C3B"/>
<path id="Vector_67" d="M20.425 15.75H20.415V17.352H20.425V15.75Z" fill="#368C3B"/>
<path id="Vector_68" d="M20.4386 15.75H20.4287V17.352H20.4386V15.75Z" fill="#378D3B"/>
<path id="Vector_69" d="M20.4484 15.75H20.4385V17.352H20.4484V15.75Z" fill="#388E3B"/>
<path id="Vector_70" d="M20.4621 15.75H20.4521V17.352H20.4621V15.75Z" fill="#398E3B"/>
<path id="Vector_71" d="M20.4718 15.75H20.4619V17.352H20.4718V15.75Z" fill="#3A8F3B"/>
<path id="Vector_72" d="M20.4816 15.75H20.4717V17.352H20.4816V15.75Z" fill="#3B903B"/>
<path id="Vector_73" d="M20.4953 15.75H20.4854V17.352H20.4953V15.75Z" fill="#3C903B"/>
<path id="Vector_74" d="M20.505 15.75H20.4951V17.352H20.505V15.75Z" fill="#3D913B"/>
<path id="Vector_75" d="M20.5177 15.75H20.5078V17.352H20.5177V15.75Z" fill="#3E923B"/>
<path id="Vector_76" d="M20.5285 15.75H20.5186V17.352H20.5285V15.75Z" fill="#3F923B"/>
<path id="Vector_77" d="M20.5412 15.75H20.5312V17.352H20.5412V15.75Z" fill="#40933B"/>
<path id="Vector_78" d="M20.5509 15.75H20.541V17.352H20.5509V15.75Z" fill="#41943B"/>
<path id="Vector_79" d="M20.5646 15.75H20.5547V17.352H20.5646V15.75Z" fill="#42943B"/>
<path id="Vector_80" d="M20.5744 15.75H20.5645V17.352H20.5744V15.75Z" fill="#43953B"/>
<path id="Vector_81" d="M20.5881 15.75H20.5781V17.352H20.5881V15.75Z" fill="#44963B"/>
<path id="Vector_82" d="M20.5978 15.75H20.5879V17.352H20.5978V15.75Z" fill="#45963B"/>
<path id="Vector_83" d="M20.6076 15.75H20.5977V17.352H20.6076V15.75Z" fill="#47973C"/>
<path id="Vector_84" d="M20.6203 15.75H20.6104V17.352H20.6203V15.75Z" fill="#48983C"/>
<path id="Vector_85" d="M20.631 15.75H20.6211V17.352H20.631V15.75Z" fill="#49983C"/>
<path id="Vector_86" d="M20.6437 15.75H20.6338V17.352H20.6437V15.75Z" fill="#4A993C"/>
<path id="Vector_87" d="M20.6535 15.75H20.6436V17.352H20.6535V15.75Z" fill="#4B9A3C"/>
<path id="Vector_88" d="M20.6672 15.75H20.6572V17.352H20.6672V15.75Z" fill="#4C9A3C"/>
<path id="Vector_89" d="M20.6769 15.75H20.667V17.352H20.6769V15.75Z" fill="#4D9B3C"/>
<path id="Vector_90" d="M20.6906 15.75H20.6807V17.352H20.6906V15.75Z" fill="#4E9C3C"/>
<path id="Vector_91" d="M20.7004 15.75H20.6904V17.352H20.7004V15.75Z" fill="#4F9C3C"/>
<path id="Vector_92" d="M20.7131 15.75H20.7031V17.352H20.7131V15.75Z" fill="#509D3C"/>
<path id="Vector_93" d="M20.7238 15.75H20.7139V17.352H20.7238V15.75Z" fill="#519E3C"/>
<path id="Vector_94" d="M20.7336 15.75H20.7236V17.352H20.7336V15.75Z" fill="#529E3C"/>
<path id="Vector_95" d="M20.7463 15.75H20.7363V17.352H20.7463V15.75Z" fill="#539F3C"/>
<path id="Vector_96" d="M20.756 15.75H20.7461V17.352H20.756V15.75Z" fill="#54A03C"/>
<path id="Vector_97" d="M20.7697 15.75H20.7598V17.352H20.7697V15.75Z" fill="#55A03C"/>
<path id="Vector_98" d="M20.7795 15.75H20.7695V17.352H20.7795V15.75Z" fill="#56A13C"/>
<path id="Vector_99" d="M20.7931 15.75H20.7832V17.352H20.7931V15.75Z" fill="#57A23C"/>
<path id="Vector_100" d="M20.8029 15.75H20.793V17.352H20.8029V15.75Z" fill="#58A23C"/>
<path id="Vector_101" d="M20.8166 15.75H20.8066V17.352H20.8166V15.75Z" fill="#59A33C"/>
<path id="Vector_102" d="M20.8263 15.75H20.8164V17.352H20.8263V15.75Z" fill="#5AA43C"/>
<path id="Vector_103" d="M20.839 15.75H20.8291V17.352H20.839V15.75Z" fill="#5BA43D"/>
<path id="Vector_104" d="M20.8488 15.75H20.8389V17.352H20.8488V15.75Z" fill="#5CA53D"/>
<path id="Vector_105" d="M20.8595 15.75H20.8496V17.352H20.8595V15.75Z" fill="#5DA63D"/>
<path id="Vector_106" d="M20.8722 15.75H20.8623V17.352H20.8722V15.75Z" fill="#5EA63D"/>
<path id="Vector_107" d="M20.882 15.75H20.8721V17.352H20.882V15.75Z" fill="#5FA73D"/>
<path id="Vector_108" d="M20.8957 15.75H20.8857V17.352H20.8957V15.75Z" fill="#60A83D"/>
<path id="Vector_109" d="M20.9054 15.75H20.8955V17.352H20.9054V15.75Z" fill="#61A83D"/>
<path id="Vector_110" d="M20.9191 15.75H20.9092V17.352H20.9191V15.75Z" fill="#62A93D"/>
<path id="Vector_111" d="M20.9289 15.75H20.9189V17.352H20.9289V15.75Z" fill="#63AA3D"/>
<path id="Vector_112" d="M20.9416 15.75H20.9316V17.352H20.9416V15.75Z" fill="#64AA3D"/>
<path id="Vector_113" d="M20.9513 15.75H20.9414V17.352H20.9513V15.75Z" fill="#65AB3D"/>
<path id="Vector_114" d="M20.965 15.75H20.9551V17.352H20.965V15.75Z" fill="#66AC3D"/>
<path id="Vector_115" d="M20.9748 15.75H20.9648V17.352H20.9748V15.75Z" fill="#67AC3D"/>
<path id="Vector_116" d="M20.9845 15.75H20.9746V17.352H20.9845V15.75Z" fill="#68AD3D"/>
<path id="Vector_117" d="M20.9982 15.75H20.9883V17.352H20.9982V15.75Z" fill="#69AE3D"/>
<path id="Vector_118" d="M21.008 15.75H20.998V17.352H21.008V15.75Z" fill="#6AAF3D"/>
<path id="Vector_119" d="M21.0216 15.75H21.0117V17.352H21.0216V15.75Z" fill="#6BAF3D"/>
<path id="Vector_120" d="M21.0314 15.75H21.0215V17.352H21.0314V15.75Z" fill="#6CB03D"/>
<path id="Vector_121" d="M21.0441 15.75H21.0342V17.352H21.0441V15.75Z" fill="#6DB13D"/>
<path id="Vector_122" d="M21.0549 15.75H21.0449V17.352H21.0549V15.75Z" fill="#6EB13D"/>
<path id="Vector_123" d="M21.0675 15.75H21.0576V17.352H21.0675V15.75Z" fill="#6FB23E"/>
<path id="Vector_124" d="M21.0773 15.75H21.0674V17.352H21.0773V15.75Z" fill="#70B33E"/>
<path id="Vector_125" d="M21.091 15.75H21.0811V17.352H21.091V15.75Z" fill="#71B33E"/>
<path id="Vector_126" d="M21.1008 15.75H21.0908V17.352H21.1008V15.75Z" fill="#72B43E"/>
<path id="Vector_127" d="M21.1105 15.75H21.1006V17.352H21.1105V15.75Z" fill="#73B53E"/>
<path id="Vector_128" d="M21.1242 15.75H21.1143V17.352H21.1242V15.75Z" fill="#74B53E"/>
<path id="Vector_129" d="M21.134 15.75H21.124V17.352H21.134V15.75Z" fill="#75B63E"/>
<path id="Vector_130" d="M21.1476 15.75H21.1377V17.352H21.1476V15.75Z" fill="#76B73E"/>
<path id="Vector_131" d="M21.1574 15.75H21.1475V17.352H21.1574V15.75Z" fill="#77B73E"/>
<path id="Vector_132" d="M21.1701 15.75H21.1602V17.352H21.1701V15.75Z" fill="#78B83E"/>
<path id="Vector_133" d="M21.1799 15.75H21.1699V17.352H21.1799V15.75Z" fill="#79B93E"/>
<path id="Vector_134" d="M21.1935 15.75H21.1836V17.352H21.1935V15.75Z" fill="#7AB93E"/>
<path id="Vector_135" d="M21.2033 15.75H21.1934V17.352H21.2033V15.75Z" fill="#7BBA3E"/>
<path id="Vector_136" d="M21.217 15.75H21.207V17.352H21.217V15.75Z" fill="#7CBB3E"/>
<path id="Vector_137" d="M21.2267 15.75H21.2168V17.352H21.2267V15.75Z" fill="#7DBB3E"/>
<path id="Vector_138" d="M21.2365 15.75H21.2266V17.352H21.2365V15.75Z" fill="#7EBC3E"/>
<path id="Vector_139" d="M21.2502 15.75H21.2402V17.352H21.2502V15.75Z" fill="#7FBD3E"/>
<path id="Vector_140" d="M21.2599 15.75H21.25V17.352H21.2599V15.75Z" fill="#80BD3E"/>
<path id="Vector_141" d="M21.2726 15.75H21.2627V17.352H21.2726V15.75Z" fill="#81BE3E"/>
<path id="Vector_142" d="M21.2824 15.75H21.2725V17.352H21.2824V15.75Z" fill="#82BF3E"/>
<path id="Vector_143" d="M21.2961 15.75H21.2861V17.352H21.2961V15.75Z" fill="#83BF3F"/>
<path id="Vector_144" d="M21.3058 15.75H21.2959V17.352H21.3058V15.75Z" fill="#84C03F"/>
<path id="Vector_145" d="M21.3195 15.75H21.3096V17.352H21.3195V15.75Z" fill="#85C13F"/>
<path id="Vector_146" d="M21.3293 15.75H21.3193V17.352H21.3293V15.75Z" fill="#86C13F"/>
<path id="Vector_147" d="M21.3429 15.75H21.333V17.352H21.3429V15.75Z" fill="#87C23F"/>
<path id="Vector_148" d="M21.3527 15.75H21.3428V17.352H21.3527V15.75Z" fill="#88C33F"/>
<path id="Vector_149" d="M21.3625 15.75H21.3525V17.352H21.3625V15.75Z" fill="#89C33F"/>
<path id="Vector_150" d="M21.3752 15.75H21.3652V17.352H21.3752V15.75Z" fill="#8AC43F"/>
<path id="Vector_151" d="M21.3859 15.75H21.376V17.352H21.3859V15.75Z" fill="#8BC53F"/>
<path id="Vector_152" d="M21.3986 15.75H21.3887V17.352H21.3986V15.75Z" fill="#8CC53F"/>
<path id="Vector_153" d="M21.4084 15.75H21.3984V17.352H21.4084V15.75Z" fill="#8DC63F"/>
</g>
</g>
</g>
<path id="Vector_154" d="M239.351 40.4116C239.356 40.6093 239.413 40.8023 239.517 40.9708C239.63 41.1132 239.778 41.2248 239.947 41.295C240.115 41.3652 240.299 41.3917 240.48 41.3721C240.672 41.3745 240.862 41.3444 241.043 41.2833C241.183 41.2526 241.308 41.1757 241.397 41.065C241.487 40.9544 241.536 40.8168 241.536 40.6747C241.545 40.5851 241.531 40.4947 241.494 40.4123C241.458 40.3299 241.4 40.2583 241.328 40.2043C241.122 40.0875 240.899 40.0063 240.666 39.9642L240.113 39.8425C239.847 39.7938 239.59 39.7039 239.351 39.576C239.226 39.4948 239.124 39.3821 239.056 39.2493C238.988 39.1165 238.956 38.9683 238.964 38.8195C238.959 38.6518 238.992 38.4852 239.059 38.3312C239.126 38.1772 239.225 38.0396 239.351 37.928C239.649 37.6792 240.032 37.5543 240.421 37.5793C240.806 37.5673 241.185 37.6742 241.507 37.8852C241.66 37.9977 241.782 38.1475 241.86 38.3204C241.939 38.4933 241.971 38.6833 241.954 38.8721H241.437C241.424 38.6935 241.362 38.5218 241.258 38.3754C241.151 38.2584 241.019 38.1677 240.87 38.1106C240.722 38.0535 240.563 38.0315 240.404 38.0464C240.154 38.0241 239.904 38.097 239.706 38.2504C239.639 38.31 239.585 38.383 239.549 38.4646C239.512 38.5463 239.493 38.6347 239.494 38.7241C239.489 38.8124 239.51 38.9003 239.554 38.9772C239.598 39.0542 239.663 39.117 239.742 39.1583C239.98 39.2558 240.227 39.3285 240.48 39.3754L241.05 39.507C241.276 39.5487 241.493 39.6348 241.685 39.7603C241.813 39.855 241.915 39.9796 241.983 40.1231C242.051 40.2666 242.081 40.4244 242.073 40.5826C242.089 40.7717 242.051 40.9614 241.965 41.1305C241.878 41.2996 241.746 41.4414 241.583 41.5399C241.236 41.7383 240.841 41.8384 240.441 41.8293C240.011 41.8543 239.587 41.7168 239.255 41.4445C239.113 41.313 239.002 41.152 238.929 40.9729C238.856 40.7938 238.824 40.6011 238.835 40.4083L239.351 40.4116Z" fill="#519043"/>
<path id="Vector_155" d="M238.868 28.9473H239.53L240.487 31.7499L241.441 28.9473H242.08V32.2631H241.649V30.2894C241.649 30.2203 241.649 30.1085 241.649 29.9604C241.649 29.8124 241.649 29.6315 241.649 29.4571L240.699 32.2532H240.252L239.292 29.4571V29.5591C239.292 29.6381 239.292 29.763 239.292 29.9275C239.292 30.092 239.292 30.217 239.292 30.2959V32.2696H238.858L238.868 28.9473Z" fill="#519043"/>
<path id="Vector_156" d="M239.351 22.4008C239.355 22.5985 239.413 22.7916 239.517 22.96C239.63 23.1025 239.778 23.214 239.946 23.2842C240.115 23.3544 240.299 23.381 240.48 23.3614C240.671 23.3637 240.862 23.3337 241.043 23.2725C241.183 23.2419 241.307 23.1649 241.397 23.0543C241.487 22.9437 241.536 22.806 241.536 22.664C241.545 22.5744 241.531 22.484 241.494 22.4016C241.458 22.3192 241.4 22.2475 241.328 22.1936C241.122 22.0768 240.898 21.9956 240.666 21.9535L240.113 21.8285C239.846 21.7821 239.589 21.6932 239.351 21.5653C239.226 21.4841 239.124 21.3714 239.056 21.2386C238.988 21.1058 238.956 20.9575 238.964 20.8087C238.958 20.6416 238.99 20.4752 239.055 20.3213C239.121 20.1673 239.22 20.0295 239.345 19.9173C239.643 19.6684 240.026 19.5435 240.414 19.5686C240.799 19.5566 241.178 19.6635 241.5 19.8745C241.653 19.9869 241.775 20.1368 241.854 20.3097C241.932 20.4825 241.964 20.6726 241.947 20.8614H241.43C241.417 20.6827 241.355 20.511 241.252 20.3646C241.145 20.2476 241.012 20.157 240.864 20.0999C240.715 20.0428 240.556 20.0208 240.397 20.0357C240.147 20.0134 239.897 20.0863 239.699 20.2396C239.632 20.2992 239.578 20.3722 239.542 20.4539C239.505 20.5355 239.487 20.624 239.487 20.7133C239.482 20.8014 239.502 20.889 239.547 20.9655C239.591 21.042 239.656 21.1041 239.735 21.1442C239.973 21.2435 240.22 21.3173 240.474 21.3646L241.043 21.4929C241.27 21.5356 241.486 21.6228 241.679 21.7495C241.807 21.844 241.909 21.9686 241.977 22.1122C242.044 22.2557 242.075 22.4137 242.066 22.5719C242.082 22.7609 242.045 22.9507 241.958 23.1198C241.871 23.2889 241.739 23.4306 241.576 23.5291C241.229 23.7276 240.834 23.8277 240.434 23.8186C240.004 23.8436 239.581 23.7061 239.249 23.4337C239.106 23.3022 238.995 23.1412 238.922 22.9622C238.85 22.7831 238.817 22.5903 238.828 22.3975L239.351 22.4008Z" fill="#519043"/>
</g>
<defs>
<linearGradient id="paint0_linear_564_7375" x1="19.0352" y1="41.4511" x2="19.0616" y2="41.4511" gradientUnits="userSpaceOnUse">
<stop stop-color="#1D7B39"/>
<stop offset="1" stop-color="#83BF3F"/>
</linearGradient>
<linearGradient id="paint1_linear_564_7375" x1="20.8069" y1="23.3818" x2="20.8168" y2="23.3818" gradientUnits="userSpaceOnUse">
<stop stop-color="#1D7B39"/>
<stop offset="1" stop-color="#83BF3F"/>
</linearGradient>
<linearGradient id="paint2_linear_564_7375" x1="0.125977" y1="24.9873" x2="50.4262" y2="24.9873" gradientUnits="userSpaceOnUse">
<stop stop-color="#517C43"/>
<stop offset="1" stop-color="#8CC53F"/>
</linearGradient>
<clipPath id="clip0_564_7375">
<rect width="242" height="50" fill="white"/>
</clipPath>
</defs>
</svg>
