<svg width="50" height="50" viewBox="0 0 50 50" fill="none" xmlns="http://www.w3.org/2000/svg">
<g id="bxs:quote-right">
<rect width="50" height="50" fill="#FDFFFD"/>
<path id="Vector" d="M42.3107 36.8918C46.2419 32.6252 45.8461 27.146 45.8336 27.0835V10.4168C45.8336 9.8643 45.6141 9.33439 45.2234 8.94369C44.8327 8.55299 44.3028 8.3335 43.7503 8.3335H31.2503C28.9523 8.3335 27.0836 10.2022 27.0836 12.5002V27.0835C27.0836 27.636 27.3031 28.1659 27.6938 28.5566C28.0845 28.9473 28.6144 29.1668 29.1669 29.1668H35.5794C35.5354 30.1968 35.2277 31.1982 34.6857 32.0752C33.6273 33.7439 31.6336 34.8835 28.7565 35.4585L27.0836 35.7918V41.6668H29.1669C34.9648 41.6668 39.3878 40.0606 42.3107 36.8918ZM19.3794 36.8918C23.3128 32.6252 22.9148 27.146 22.9023 27.0835V10.4168C22.9023 9.8643 22.6828 9.33439 22.2921 8.94369C21.9014 8.55299 21.3715 8.3335 20.819 8.3335H8.31901C6.02109 8.3335 4.15234 10.2022 4.15234 12.5002V27.0835C4.15234 27.636 4.37184 28.1659 4.76254 28.5566C5.15324 28.9473 5.68314 29.1668 6.23568 29.1668H12.6482C12.6042 30.1968 12.2964 31.1982 11.7544 32.0752C10.6961 33.7439 8.70234 34.8835 5.82526 35.4585L4.15234 35.7918V41.6668H6.23568C12.0336 41.6668 16.4565 40.0606 19.3794 36.8918Z" fill="#59A548"/>
</g>
</svg>
