<svg width="50" height="50" viewBox="0 0 50 50" fill="none" xmlns="http://www.w3.org/2000/svg">
<g id="bxs:quote-right">
<rect width="50" height="50" transform="matrix(-1 0 0 -1 50 50)" fill="#FDFFFD"/>
<path id="Vector" d="M7.68932 13.1082C3.75808 17.3748 4.15391 22.854 4.16641 22.9165V39.5832C4.16641 40.1357 4.3859 40.6656 4.7766 41.0563C5.1673 41.447 5.69721 41.6665 6.24974 41.6665H18.7497C21.0477 41.6665 22.9164 39.7978 22.9164 37.4998V22.9165C22.9164 22.364 22.6969 21.8341 22.3062 21.4434C21.9155 21.0527 21.3856 20.8332 20.8331 20.8332H14.4206C14.4646 19.8032 14.7723 18.8018 15.3143 17.9248C16.3727 16.2561 18.3664 15.1165 21.2435 14.5415L22.9164 14.2082V8.33317H20.8331C15.0352 8.33317 10.6122 9.93942 7.68932 13.1082ZM30.6206 13.1082C26.6872 17.3748 27.0852 22.854 27.0977 22.9165V39.5832C27.0977 40.1357 27.3172 40.6656 27.7079 41.0563C28.0986 41.447 28.6285 41.6665 29.181 41.6665H41.681C43.9789 41.6665 45.8477 39.7978 45.8477 37.4998V22.9165C45.8477 22.364 45.6282 21.8341 45.2375 21.4434C44.8468 21.0527 44.3169 20.8332 43.7643 20.8332H37.3518C37.3958 19.8032 37.7036 18.8018 38.2456 17.9248C39.3039 16.2561 41.2977 15.1165 44.1747 14.5415L45.8477 14.2082V8.33317H43.7643C37.9664 8.33317 33.5435 9.93942 30.6206 13.1082Z" fill="#59A548"/>
</g>
</svg>
