<svg width="29" height="29" viewBox="0 0 29 29" fill="none" xmlns="http://www.w3.org/2000/svg">
<g id="jam:messages-f">
<path id="Vector" d="M7.09834 24.3925C6.93083 24.5381 6.72524 24.633 6.50572 24.6659C6.28619 24.6988 6.06183 24.6684 5.85898 24.5782C5.65613 24.4881 5.48321 24.3419 5.36052 24.1569C5.23784 23.9719 5.17047 23.7558 5.16634 23.5338V20.917C4.5475 20.917 3.95401 20.6712 3.51643 20.2336C3.07884 19.796 2.83301 19.2025 2.83301 18.5837V10.417C2.83301 9.79815 3.07884 9.20466 3.51643 8.76708C3.95401 8.32949 4.5475 8.08366 5.16634 8.08366H17.9997C18.6185 8.08366 19.212 8.32949 19.6496 8.76708C20.0872 9.20466 20.333 9.79815 20.333 10.417V18.5837C20.333 19.2025 20.0872 19.796 19.6496 20.2336C19.212 20.6712 18.6185 20.917 17.9997 20.917H12.1698L7.09834 24.3925ZM21.4997 15.1035C21.496 15.247 21.496 15.3905 21.4997 15.534V15.1023C21.5055 14.9775 21.5067 13.4142 21.5043 10.4135C21.5034 9.48584 21.1343 8.5965 20.478 7.94088C19.8217 7.28526 18.932 6.91699 18.0043 6.91699H8.66634V5.75033C8.66634 5.13149 8.91217 4.53799 9.34976 4.10041C9.78734 3.66282 10.3808 3.41699 10.9997 3.41699H23.833C24.4518 3.41699 25.0453 3.66282 25.4829 4.10041C25.9205 4.53799 26.1663 5.13149 26.1663 5.75033V13.917C26.1663 14.5358 25.9205 15.1293 25.4829 15.5669C25.0453 16.0045 24.4518 16.2503 23.833 16.2503V18.8672C23.8289 19.0891 23.7615 19.3053 23.6388 19.4903C23.5161 19.6753 23.3432 19.8214 23.1404 19.9116C22.9375 20.0017 22.7132 20.0321 22.4936 19.9992C22.2741 19.9663 22.0685 19.8715 21.901 19.7258L21.4997 19.4505V15.1035Z" fill="white"/>
<path id="Vector 1" d="M5.75 12.167H17.4167" stroke="#FFC001" stroke-linecap="round"/>
<path id="Vector 2" d="M6.33301 15.667H15.6663" stroke="#FFC001" stroke-linecap="round"/>
</g>
</svg>
